<svg width="26" height="32" viewBox="0 0 26 32" fill="none" xmlns="http://www.w3.org/2000/svg">
<path d="M25.2575 19.9225L13.5909 31.5891C13.4275 31.7525 13.2142 31.8325 13.0009 31.8325C12.7875 31.8325 12.5742 31.7508 12.4108 31.5891L0.744177 19.9225C0.419177 19.5975 0.419177 19.0691 0.744177 18.7441C1.06918 18.4191 1.59756 18.4191 1.92256 18.7441L12.1659 28.9875V1.00081C12.1659 0.540814 12.5392 0.16748 12.9992 0.16748C13.4592 0.16748 13.8326 0.540814 13.8326 1.00081V28.9891L24.0759 18.7458C24.4009 18.4208 24.9292 18.4208 25.2542 18.7458C25.5792 19.0708 25.5825 19.5975 25.2575 19.9225Z" fill="white"/>
</svg>
