<svg width="14" height="10" viewBox="0 0 14 10" fill="none" xmlns="http://www.w3.org/2000/svg">
<path d="M8.569 0.0970389L13.2357 4.76371C13.301 4.82904 13.333 4.91437 13.333 4.99971C13.333 5.08504 13.3003 5.17038 13.2357 5.23571L8.569 9.90238C8.439 10.0324 8.22767 10.0324 8.09767 9.90238C7.96767 9.77238 7.96767 9.56102 8.09767 9.43102L12.195 5.33369L1.00034 5.33369C0.816337 5.33369 0.667003 5.18436 0.667003 5.00036C0.667003 4.81636 0.816337 4.66703 1.00034 4.66703L12.1957 4.66703L8.09834 0.569695C7.96834 0.439695 7.96834 0.228382 8.09834 0.0983817C8.22834 -0.0316184 8.439 -0.0329612 8.569 0.0970389Z" fill="white"/>
</svg>
