<svg width="226" height="58" viewBox="0 0 226 58" fill="none" xmlns="http://www.w3.org/2000/svg">
<path d="M0.04 20.4C0.04 17.8667 0.266667 14.8667 0.72 11.4C0.72 11.2667 0.813333 11.0533 1 10.76C1.34667 10.4133 1.8 10.2 2.36 10.12C2.6 10.12 2.72 10.2267 2.72 10.44C2.18667 13.2667 1.92 17.3867 1.92 22.8C1.92 23.36 1.93333 23.64 1.96 23.64C2.01333 23.64 2.09333 23.56 2.2 23.4C2.33333 23.2133 2.44 23.12 2.52 23.12C2.92 23.12 3.13333 23.2133 3.16 23.4C4.22667 24.76 5.57333 25.44 7.2 25.44C8.4 25.44 9.48 25.16 10.44 24.6C11.4267 24.04 12.2 23.3733 12.76 22.6C13.32 21.8 13.7867 20.9333 14.16 20C14.8267 18.4533 15.16 17.08 15.16 15.88C15.16 14.68 14.8667 13.5867 14.28 12.6C13.72 11.6133 12.9867 11.12 12.08 11.12C11.9467 11.12 11.7867 11.1867 11.6 11.32C11.44 11.4267 11.28 11.48 11.12 11.48C10.9867 11.48 10.8267 11.4267 10.64 11.32C10.4533 11.1867 10.36 11.0533 10.36 10.92C10.36 10.3067 10.9067 9.54666 12 8.64C13.0933 7.70666 13.9867 7.24 14.68 7.24C16.0667 7.24 17.1067 7.69333 17.8 8.6C18.4933 9.48 18.84 10.8 18.84 12.56C18.84 14.2933 18.36 16.2667 17.4 18.48C16.44 20.6933 15.04 22.6267 13.2 24.28C11.36 25.9067 9.36 26.72 7.2 26.72C6.29333 26.72 5.58667 26.6133 5.08 26.4C4.57333 26.16 4.28 26.04 4.2 26.04C4.12 26.04 4.08 26.12 4.08 26.28C4.08 26.4133 4.13333 26.64 4.24 26.96C6.16 30.32 8.21333 32.9067 10.4 34.72C12.5867 36.5067 14.76 37.4 16.92 37.4C17.6933 37.4 18.24 37.28 18.56 37.04C18.9067 36.7733 19.1733 36.5467 19.36 36.36C19.7067 36.0133 19.9733 35.84 20.16 35.84C20.3467 35.84 20.52 35.96 20.68 36.2C20.84 36.44 20.92 36.6533 20.92 36.84C20.92 37.7733 20.08 38.8267 18.4 40C16.7467 41.1733 14.8133 41.76 12.6 41.76C10.2267 41.76 8.38667 41.1067 7.08 39.8C6.41333 39.1333 5.84 38.4667 5.36 37.8C4.90667 37.1333 4.49333 36.2933 4.12 35.28C3.74667 34.24 3.46667 33.3867 3.28 32.72C3.09333 32.0533 2.88 31.1733 2.64 30.08C2.26667 28.5067 2.04 27.72 1.96 27.72C1.88 27.72 1.84 27.8267 1.84 28.04L1.8 31.56C1.8 34.8933 1.93333 37.7067 2.2 40C2.2 40.16 2.04 40.3867 1.72 40.68C1.42667 41 1.12 41.16 0.8 41.16C0.48 41.16 0.32 40.88 0.32 40.32C0.32 40.1067 0.293333 39.4667 0.24 38.4C0.08 35.2 0 32.3733 0 29.92V24.52L0.04 20.4ZM31.2566 34.88L31.0966 36C31.0966 36.48 31.2966 36.9867 31.6966 37.52C32.1232 38.0267 32.6166 38.28 33.1766 38.28C33.6032 38.28 33.9499 38.1867 34.2166 38C34.8032 37.6 35.1632 37.3333 35.2966 37.2C35.4566 37.04 35.6966 36.96 36.0166 36.96C36.3632 36.96 36.5366 37.08 36.5366 37.32C36.5366 37.5867 35.9099 38.4267 34.6566 39.84C34.2566 40.2933 33.6699 40.7733 32.8966 41.28C32.1232 41.7867 31.4299 42.04 30.8166 42.04C30.2299 42.04 29.7766 41.9333 29.4566 41.72C29.1632 41.5333 28.9499 41.2267 28.8166 40.8C28.6566 40.2133 28.5766 39.4933 28.5766 38.64C28.5766 38.5333 28.5099 38.48 28.3766 38.48C28.2432 38.48 27.9366 38.7467 27.4566 39.28C25.9632 40.8267 24.7499 41.6 23.8166 41.6C22.9099 41.6 22.2032 41.36 21.6966 40.88C21.2166 40.4 20.9766 39.7867 20.9766 39.04C20.9766 37.7333 21.3232 36.4933 22.0166 35.32C22.7099 34.12 23.5366 33.16 24.4966 32.44C26.6299 30.8667 28.2832 30.08 29.4566 30.08C31.2166 30.1333 32.0966 30.76 32.0966 31.96C32.0966 32.3867 31.9099 32.8133 31.5366 33.24C31.1632 33.64 30.8166 33.84 30.4966 33.84C30.1766 33.84 29.7366 33.56 29.1766 33C28.6166 32.44 28.0032 32.16 27.3366 32.16C26.6699 32.16 26.1232 32.44 25.6966 33C25.2699 33.5333 25.0566 34.2267 25.0566 35.08C25.0566 36.4667 25.7899 37.16 27.2566 37.16C27.8432 37.16 28.3232 37.0133 28.6966 36.72C29.0966 36.4267 29.3766 36.1067 29.5366 35.76C29.9899 34.8533 30.4032 34.4 30.7766 34.4C31.0966 34.4 31.2566 34.56 31.2566 34.88ZM44.4725 52C45.1125 52 45.4325 49.36 45.4325 44.08C45.4325 42.96 45.4192 42.1333 45.3925 41.6C43.7125 43.8667 42.8725 45.9067 42.8725 47.72C42.8725 48.76 42.9925 49.7333 43.2325 50.64C43.4992 51.5467 43.9125 52 44.4725 52ZM38.1525 31.24L37.9925 32.84C37.9925 33.9867 38.3658 34.96 39.1125 35.76C39.8858 36.5333 40.8192 36.9333 41.9125 36.96C42.5792 36.9333 43.1925 36.7467 43.7525 36.4C44.3392 36.0267 44.7525 35.68 44.9925 35.36L45.3125 34.84C45.3392 33.9333 45.4725 33.1733 45.7125 32.56C46.0858 31.52 46.5258 31 47.0325 31H47.1525C47.4458 31.1067 47.5925 31.5333 47.5925 32.28C47.5925 32.6 47.2858 33.2267 46.6725 34.16L46.3525 34.68C46.3525 36.7333 46.3658 38.2533 46.3925 39.24C47.9392 37.7733 49.0858 36.5733 49.8325 35.64C50.1792 35.3733 50.4458 35.24 50.6325 35.24C50.8458 35.24 50.9525 35.3467 50.9525 35.56C50.9525 35.7467 50.7792 35.9867 50.4325 36.28C49.6325 36.92 48.2992 38.2667 46.4325 40.32L46.5525 46.44C46.5525 49.7467 46.3258 52.2533 45.8725 53.96C45.4192 55.6667 44.5658 56.52 43.3125 56.52C42.2992 56.52 41.4592 56 40.7925 54.96C40.1258 53.92 39.7925 52.7867 39.7925 51.56C39.7925 49.2133 40.2725 47.1733 41.2325 45.44C42.2192 43.7333 43.6058 42 45.3925 40.24C45.3392 38.32 45.3125 37.2667 45.3125 37.08C45.3125 36.8933 45.2325 36.8 45.0725 36.8C44.9392 36.8 44.7792 36.9333 44.5925 37.2C43.6592 38.1867 42.9792 38.88 42.5525 39.28C41.4058 40.4 40.2458 40.96 39.0725 40.96C37.9258 40.96 37.0058 40.5733 36.3125 39.8C35.6458 39.0267 35.3125 37.9333 35.3125 36.52C35.3125 35.08 35.5792 33.7733 36.1125 32.6C36.6725 31.4 37.1925 30.8 37.6725 30.8C37.9925 30.8 38.1525 30.9467 38.1525 31.24ZM57.67 35.8C56.4167 35.8 55.43 35.48 54.71 34.84C53.99 34.2 53.5767 33.3867 53.47 32.4C53.0433 32.72 52.83 33.32 52.83 34.2C52.83 35.0533 53.07 35.8133 53.55 36.48C54.0567 37.12 54.67 37.44 55.39 37.44C56.1367 37.44 56.6967 37.2533 57.07 36.88C57.47 36.5067 57.67 36.1467 57.67 35.8ZM59.23 33.12C59.31 33.36 59.4033 33.48 59.51 33.48C59.6433 33.48 59.8567 33.4133 60.15 33.28C60.4433 33.12 60.6967 33.04 60.91 33.04C61.1233 33.04 61.23 33.1733 61.23 33.44C61.23 33.7067 60.9367 34.1467 60.35 34.76C59.79 35.3733 59.31 35.68 58.91 35.68C58.35 37.2 57.4167 38.6133 56.11 39.92C54.83 41.2 53.51 41.84 52.15 41.84C51.19 41.84 50.39 41.52 49.75 40.88C49.11 40.2667 48.79 39.36 48.79 38.16C48.79 36.9333 49.2967 35.6133 50.31 34.2C51.3233 32.76 52.3633 32.04 53.43 32.04V31.88C53.43 31.2933 53.63 30.8267 54.03 30.48C54.43 30.1067 54.9233 29.92 55.51 29.92C57.3233 29.92 58.5633 30.9867 59.23 33.12ZM69.0809 24.84C69.0809 28.12 69.3609 30.8 69.9209 32.88C70.5876 31.1733 71.1343 29.2667 71.5609 27.16C72.0143 25.0267 72.2409 23.52 72.2409 22.64C72.2409 19.8133 71.8809 18.4 71.1609 18.4C70.5476 18.4 70.0409 19.1733 69.6409 20.72C69.2676 22.24 69.0809 23.6133 69.0809 24.84ZM75.0009 37.96L76.5209 37.56C76.8676 37.56 77.0409 37.7067 77.0409 38C77.0409 38.24 76.8143 38.6133 76.3609 39.12C75.9076 39.6 75.2543 40.1067 74.4009 40.64C73.5476 41.1733 72.7209 41.44 71.9209 41.44C70.1609 41.44 68.8943 40.48 68.1209 38.56C66.5743 40.4533 64.8143 41.4 62.8409 41.4C61.8276 41.4 61.0943 41.0267 60.6409 40.28C60.1876 39.56 59.9609 38.6533 59.9609 37.56C59.9609 36.0933 60.7609 34.5867 62.3609 33.04C63.9876 31.4933 65.2676 30.72 66.2009 30.72C66.4409 30.72 66.6009 30.8667 66.6809 31.16C66.6809 31.3733 66.3343 31.7067 65.6409 32.16C64.6009 32.8 64.0809 33.6267 64.0809 34.64C64.0809 35.76 64.3876 36.48 65.0009 36.8C65.4543 37.0667 65.8676 37.2 66.2409 37.2C66.6409 37.2 67.0676 37.0133 67.5209 36.64C67.2276 35.2 67.0809 33.4667 67.0809 31.44C67.0809 29.3867 67.2409 27.2267 67.5609 24.96C67.9076 22.6667 68.4543 20.5867 69.2009 18.72C69.9743 16.8533 70.8409 15.92 71.8009 15.92C72.4143 15.92 72.8676 16.3467 73.1609 17.2C73.4543 18.0533 73.6009 19.1067 73.6009 20.36C73.6009 21.6133 73.3343 23.6933 72.8009 26.6C72.2943 29.48 71.5209 32.12 70.4809 34.52C71.4676 36.8133 72.9743 37.96 75.0009 37.96ZM80.3113 35.4C80.7646 35.24 81.2179 34.7333 81.6713 33.88C82.1513 33 82.3913 32.28 82.3913 31.72C82.3913 31.16 82.1779 30.8667 81.7513 30.84C81.1113 30.84 80.6579 31.1333 80.3913 31.72C80.1246 32.28 79.9913 32.9067 79.9913 33.6C79.9913 34.2667 80.0979 34.8667 80.3113 35.4ZM83.7513 38C84.4979 38 85.1113 37.84 85.5913 37.52C86.0979 37.1733 86.5646 36.7333 86.9913 36.2C87.4446 35.6667 87.7913 35.4 88.0313 35.4C88.2979 35.4 88.4313 35.52 88.4313 35.76C88.4313 35.92 88.3779 36.1067 88.2713 36.32C87.3913 37.7333 86.2979 38.9733 84.9913 40.04C83.6846 41.1333 82.2979 41.68 80.8313 41.68C79.3646 41.68 78.2979 41.32 77.6313 40.6C76.9912 39.9067 76.6712 38.9733 76.6712 37.8C76.6712 35.7733 77.4312 33.7067 78.9513 31.6C80.4713 29.4667 82.0446 28.4 83.6713 28.4C84.5246 28.4 84.9513 28.7467 84.9513 29.44C84.9513 30.3733 84.6579 31.3467 84.0713 32.36C83.4846 33.3467 82.4046 34.6933 80.8313 36.4C81.5513 37.4667 82.5246 38 83.7513 38Z" fill="white"/>
<path d="M110.92 22.36C112.227 20.8133 112.88 19.1467 112.88 17.36C112.88 16.0533 112.547 14.8667 111.88 13.8C111.213 12.7067 110.213 11.8933 108.88 11.36C108.4 11.12 107.893 11 107.36 11C105.787 11 104.28 11.72 102.84 13.16C101.4 14.6 100.267 16.3467 99.44 18.4C98.64 20.4533 98.24 22.5333 98.24 24.64C98.24 26.7467 98.5333 28.7467 99.12 30.64C99.7067 32.5333 100.427 33.48 101.28 33.48C101.52 33.48 101.667 33.3333 101.72 33.04C102.28 30.96 102.853 26.96 103.44 21.04C103.653 18.88 103.773 17.7867 103.8 17.76C104.787 17.0933 105.4 16.76 105.64 16.76C105.8 16.76 105.88 16.96 105.88 17.36C105.88 17.76 105.76 18.5067 105.52 19.6C104.613 23.7867 103.373 30.6533 101.8 40.2C101.693 40.6267 101.467 40.84 101.12 40.84C99.8133 40.84 98.68 39.2267 97.72 36C96.76 32.7733 96.28 29.5067 96.28 26.2C96.28 22.8933 96.9333 19.84 98.24 17.04C99.5467 14.2133 101.347 11.96 103.64 10.28C105.96 8.6 108.493 7.76 111.24 7.76C113.16 7.76 114.72 8.4 115.92 9.68C117.12 10.9333 117.72 12.52 117.72 14.44C117.72 16.36 117.2 18.0133 116.16 19.4C115.12 20.7867 113.92 21.8933 112.56 22.72C114.027 23.2267 115.267 24.1333 116.28 25.44C118.12 27.76 119.04 30.2 119.04 32.76C119.04 35.2933 118.093 37.6 116.2 39.68C114.307 41.7333 112.187 42.76 109.84 42.76C108.053 42.76 106.48 41.8667 105.12 40.08C103.787 38.2933 103.12 36.8133 103.12 35.64C103.12 35.4267 103.24 35.24 103.48 35.08C103.747 34.92 104.48 34.52 105.68 33.88C106.88 33.2133 107.547 32.8667 107.68 32.84C107.813 32.8133 107.96 32.8 108.12 32.8C108.2 32.8267 108.307 32.96 108.44 33.2C108.947 34.4533 109.707 35.7733 110.72 37.16C111.733 38.5467 112.747 39.24 113.76 39.24C114.64 39.24 115.08 38.4667 115.08 36.92C115.08 35.3467 114.64 33.6933 113.76 31.96C112.907 30.2267 111.88 28.7733 110.68 27.6C109.48 26.4 108.44 25.8 107.56 25.8C107.267 25.8 106.853 25.9067 106.32 26.12C105.813 26.3067 105.467 26.4 105.28 26.4C104.8 26.2933 104.56 25.9067 104.56 25.24C104.56 24.5467 105.04 23.88 106 23.24C106.987 22.5733 108.173 22.24 109.56 22.24C110.013 22.24 110.467 22.28 110.92 22.36ZM129.733 34.88L129.573 36C129.573 36.48 129.773 36.9867 130.173 37.52C130.6 38.0267 131.093 38.28 131.653 38.28C132.08 38.28 132.426 38.1867 132.693 38C133.28 37.6 133.64 37.3333 133.773 37.2C133.933 37.04 134.173 36.96 134.493 36.96C134.84 36.96 135.013 37.08 135.013 37.32C135.013 37.5867 134.386 38.4267 133.133 39.84C132.733 40.2933 132.146 40.7733 131.373 41.28C130.6 41.7867 129.906 42.04 129.293 42.04C128.706 42.04 128.253 41.9333 127.933 41.72C127.64 41.5333 127.426 41.2267 127.293 40.8C127.133 40.2133 127.053 39.4933 127.053 38.64C127.053 38.5333 126.986 38.48 126.853 38.48C126.72 38.48 126.413 38.7467 125.933 39.28C124.44 40.8267 123.226 41.6 122.293 41.6C121.386 41.6 120.68 41.36 120.173 40.88C119.693 40.4 119.453 39.7867 119.453 39.04C119.453 37.7333 119.8 36.4933 120.493 35.32C121.186 34.12 122.013 33.16 122.973 32.44C125.106 30.8667 126.76 30.08 127.933 30.08C129.693 30.1333 130.573 30.76 130.573 31.96C130.573 32.3867 130.386 32.8133 130.013 33.24C129.64 33.64 129.293 33.84 128.973 33.84C128.653 33.84 128.213 33.56 127.653 33C127.093 32.44 126.48 32.16 125.813 32.16C125.146 32.16 124.6 32.44 124.173 33C123.746 33.5333 123.533 34.2267 123.533 35.08C123.533 36.4667 124.266 37.16 125.733 37.16C126.32 37.16 126.8 37.0133 127.173 36.72C127.573 36.4267 127.853 36.1067 128.013 35.76C128.466 34.8533 128.88 34.4 129.253 34.4C129.573 34.4 129.733 34.56 129.733 34.88ZM142.989 38.8C142.989 37.6533 142.856 37.08 142.589 37.08C142.349 37.08 142.002 37.4133 141.549 38.08C141.122 38.7467 140.656 39.4133 140.149 40.08C139.642 40.7733 139.176 41.12 138.749 41.12C138.509 41.12 138.136 40.6933 137.629 39.84C137.149 38.9867 136.616 38.1467 136.029 37.32C135.442 36.4667 134.922 36.04 134.469 36.04C134.336 36.04 134.269 35.9733 134.269 35.84C134.269 35.4133 134.776 34.64 135.789 33.52C136.802 32.4 137.522 31.84 137.949 31.84C138.402 31.84 139.056 32.5333 139.909 33.92C140.789 35.3067 141.376 36 141.669 36C141.962 36 142.549 35.4533 143.429 34.36C144.336 33.2667 145.042 32.72 145.549 32.72C146.082 32.72 146.469 32.9333 146.709 33.36C146.976 33.76 147.122 34.2 147.149 34.68C147.202 35.16 147.256 35.6133 147.309 36.04C147.362 36.44 147.469 36.64 147.629 36.64C147.896 36.64 148.576 35.9867 149.669 34.68C150.789 33.3467 151.602 32.68 152.109 32.68C152.669 32.68 153.602 33.52 154.909 35.2C155.389 35.84 155.989 36.4267 156.709 36.96C157.456 37.4667 158.069 37.72 158.549 37.72C159.029 37.72 159.496 37.64 159.949 37.48C160.402 37.32 160.789 37.24 161.109 37.24C161.429 37.24 161.589 37.3467 161.589 37.56C161.589 37.6667 161.536 37.76 161.429 37.84C161.349 37.92 161.122 38.1333 160.749 38.48C160.402 38.8 160.109 39.0533 159.869 39.24C159.656 39.4267 159.336 39.68 158.909 40C158.509 40.3467 158.162 40.6133 157.869 40.8C157.069 41.28 156.309 41.52 155.589 41.52C154.896 41.52 154.109 41.12 153.229 40.32C152.376 39.5467 151.629 38.7733 150.989 38C150.376 37.2 149.922 36.8 149.629 36.8C149.336 36.8 148.856 37.2 148.189 38C147.549 38.8 146.882 39.6 146.189 40.4C145.522 41.2 144.936 41.6 144.429 41.6C143.949 41.6 143.576 41.3733 143.309 40.92C143.069 40.4667 142.949 39.9733 142.949 39.44L142.989 38.8ZM161.117 27.56C160.717 27.1067 160.517 26.5467 160.517 25.88C160.517 25.2133 160.717 24.6533 161.117 24.2C161.544 23.7467 162.064 23.52 162.677 23.52C163.291 23.52 163.797 23.7467 164.197 24.2C164.624 24.6533 164.837 25.2133 164.837 25.88C164.837 26.5467 164.624 27.1067 164.197 27.56C163.797 28.0133 163.291 28.24 162.677 28.24C162.064 28.24 161.544 28.0133 161.117 27.56ZM169.437 36.28C169.704 36.0667 169.944 35.96 170.157 35.96C170.531 35.96 170.717 36.2 170.717 36.68C170.717 37.3467 169.891 38.3467 168.237 39.68C166.584 40.9867 165.157 41.64 163.957 41.64C162.757 41.64 161.824 41.2133 161.157 40.36C160.491 39.5067 160.157 38.4133 160.157 37.08C160.157 35.72 160.384 34.4133 160.837 33.16C161.291 31.9067 161.744 31.28 162.197 31.28C162.411 31.3067 162.517 31.64 162.517 32.28C162.517 32.8933 162.611 33.5733 162.797 34.32C162.984 35.0667 163.384 35.7867 163.997 36.48C164.637 37.1467 165.451 37.48 166.437 37.48C167.451 37.48 168.451 37.08 169.437 36.28ZM178.612 24.84C178.612 28.12 178.892 30.8 179.452 32.88C180.119 31.1733 180.666 29.2667 181.092 27.16C181.546 25.0267 181.772 23.52 181.772 22.64C181.772 19.8133 181.412 18.4 180.692 18.4C180.079 18.4 179.572 19.1733 179.172 20.72C178.799 22.24 178.612 23.6133 178.612 24.84ZM184.532 37.96L186.052 37.56C186.399 37.56 186.572 37.7067 186.572 38C186.572 38.24 186.346 38.6133 185.892 39.12C185.439 39.6 184.786 40.1067 183.932 40.64C183.079 41.1733 182.252 41.44 181.452 41.44C179.692 41.44 178.426 40.48 177.652 38.56C176.106 40.4533 174.346 41.4 172.372 41.4C171.359 41.4 170.626 41.0267 170.172 40.28C169.719 39.56 169.492 38.6533 169.492 37.56C169.492 36.0933 170.292 34.5867 171.892 33.04C173.519 31.4933 174.799 30.72 175.732 30.72C175.972 30.72 176.132 30.8667 176.212 31.16C176.212 31.3733 175.866 31.7067 175.172 32.16C174.132 32.8 173.612 33.6267 173.612 34.64C173.612 35.76 173.919 36.48 174.532 36.8C174.986 37.0667 175.399 37.2 175.772 37.2C176.172 37.2 176.599 37.0133 177.052 36.64C176.759 35.2 176.612 33.4667 176.612 31.44C176.612 29.3867 176.772 27.2267 177.092 24.96C177.439 22.6667 177.986 20.5867 178.732 18.72C179.506 16.8533 180.372 15.92 181.332 15.92C181.946 15.92 182.399 16.3467 182.692 17.2C182.986 18.0533 183.132 19.1067 183.132 20.36C183.132 21.6133 182.866 23.6933 182.332 26.6C181.826 29.48 181.052 32.12 180.012 34.52C180.999 36.8133 182.506 37.96 184.532 37.96ZM189.843 35.4C190.296 35.24 190.749 34.7333 191.203 33.88C191.683 33 191.923 32.28 191.923 31.72C191.923 31.16 191.709 30.8667 191.283 30.84C190.643 30.84 190.189 31.1333 189.923 31.72C189.656 32.28 189.523 32.9067 189.523 33.6C189.523 34.2667 189.629 34.8667 189.843 35.4ZM193.283 38C194.029 38 194.643 37.84 195.123 37.52C195.629 37.1733 196.096 36.7333 196.523 36.2C196.976 35.6667 197.323 35.4 197.563 35.4C197.829 35.4 197.963 35.52 197.963 35.76C197.963 35.92 197.909 36.1067 197.803 36.32C196.923 37.7333 195.829 38.9733 194.523 40.04C193.216 41.1333 191.829 41.68 190.363 41.68C188.896 41.68 187.829 41.32 187.163 40.6C186.522 39.9067 186.202 38.9733 186.202 37.8C186.202 35.7733 186.962 33.7067 188.483 31.6C190.003 29.4667 191.576 28.4 193.203 28.4C194.056 28.4 194.483 28.7467 194.483 29.44C194.483 30.3733 194.189 31.3467 193.603 32.36C193.016 33.3467 191.936 34.6933 190.363 36.4C191.083 37.4667 192.056 38 193.283 38ZM201.268 17.84C200.521 17.84 199.948 18.7067 199.548 20.44C199.174 22.1733 198.988 23.9333 198.988 25.72C198.988 27.5067 199.174 29.2667 199.548 31C201.388 28.2533 202.308 24.5733 202.308 19.96C202.308 19.2933 202.201 18.7733 201.988 18.4C201.801 18.0267 201.561 17.84 201.268 17.84ZM205.148 37.28C205.574 37.28 206.188 37.12 206.988 36.8C207.788 36.48 208.334 36.32 208.628 36.32C208.921 36.32 209.068 36.4533 209.068 36.72C209.068 37.3333 208.228 38.24 206.548 39.44C204.894 40.6133 203.561 41.2 202.548 41.2C201.534 41.2 200.708 41.04 200.068 40.72C199.428 40.4 198.908 39.9333 198.507 39.32C198.134 38.68 197.828 38.0533 197.588 37.44C197.348 36.8267 197.188 36.08 197.107 35.2C196.947 33.84 196.867 32.2533 196.867 30.44C196.867 28.6267 197.107 26.4533 197.588 23.92C198.068 21.3867 198.734 19.24 199.588 17.48C200.468 15.72 201.388 14.8133 202.348 14.76C202.614 14.7867 202.828 14.84 202.988 14.92C203.174 14.9733 203.348 15.2 203.508 15.6C203.694 15.9733 203.788 16.52 203.788 17.24C203.788 23.8 202.494 28.84 199.908 32.36C200.974 35.64 202.721 37.28 205.148 37.28ZM210.702 35.4C211.155 35.24 211.609 34.7333 212.062 33.88C212.542 33 212.782 32.28 212.782 31.72C212.782 31.16 212.569 30.8667 212.142 30.84C211.502 30.84 211.049 31.1333 210.782 31.72C210.515 32.28 210.382 32.9067 210.382 33.6C210.382 34.2667 210.489 34.8667 210.702 35.4ZM214.142 38C214.889 38 215.502 37.84 215.982 37.52C216.489 37.1733 216.955 36.7333 217.382 36.2C217.835 35.6667 218.182 35.4 218.422 35.4C218.689 35.4 218.822 35.52 218.822 35.76C218.822 35.92 218.769 36.1067 218.662 36.32C217.782 37.7333 216.689 38.9733 215.382 40.04C214.075 41.1333 212.689 41.68 211.222 41.68C209.755 41.68 208.689 41.32 208.022 40.6C207.382 39.9067 207.062 38.9733 207.062 37.8C207.062 35.7733 207.822 33.7067 209.342 31.6C210.862 29.4667 212.435 28.4 214.062 28.4C214.915 28.4 215.342 28.7467 215.342 29.44C215.342 30.3733 215.049 31.3467 214.462 32.36C213.875 33.3467 212.795 34.6933 211.222 36.4C211.942 37.4667 212.915 38 214.142 38ZM219.95 40.2C219.55 39.7467 219.35 39.1867 219.35 38.52C219.35 37.8533 219.55 37.2933 219.95 36.84C220.377 36.3867 220.897 36.16 221.51 36.16C222.124 36.16 222.63 36.3867 223.03 36.84C223.457 37.2933 223.67 37.8533 223.67 38.52C223.67 39.1867 223.457 39.7467 223.03 40.2C222.63 40.6533 222.124 40.88 221.51 40.88C220.897 40.88 220.377 40.6533 219.95 40.2Z" fill="#808080"/>
</svg>
